<?xml version="1.0" encoding="utf-8"?>
<!-- Generator: Adobe Illustrator 18.1.1, SVG Export Plug-In . SVG Version: 6.00 Build 0)  -->
<!DOCTYPE svg PUBLIC "-//W3C//DTD SVG 1.1//EN" "http://www.w3.org/Graphics/SVG/1.1/DTD/svg11.dtd">
<svg version="1.1" id="Layer_1" xmlns="http://www.w3.org/2000/svg" xmlns:xlink="http://www.w3.org/1999/xlink" x="0px" y="0px"
	 viewBox="0 0 243.4 244.7" enable-background="new 0 0 243.4 244.7" xml:space="preserve">
<g>
	<linearGradient id="SVGID_1_" gradientUnits="userSpaceOnUse" x1="98.3652" y1="147.1898" x2="228.4199" y2="147.1898">
		<stop  offset="0" style="stop-color:#47C0F0"/>
		<stop  offset="0.5" style="stop-color:#00A0E3"/>
		<stop  offset="1" style="stop-color:#008BD2"/>
	</linearGradient>
	<path fill="url(#SVGID_1_)" d="M182.6,229c33.1-29.5,49.5-78.5,30.6-121.1c-15.1-32.6-51.7-55.2-87-43.9c22.7-6.3,46.7,0,64.3,15.1
		c47.9,42.7,31.5,117.9-15.1,154.3c39.1-30.1,56.7-84.1,34-129.2c-15.1-27.6-49.2-50.2-80.7-37.6c45.4-7.5,83.2,31.4,85.8,75.3
		c1.3,41.4-25.2,81.6-63.1,99.1c58-23.8,87-105.4,39.1-154.3c-17.7-16.3-41.6-23.8-64.3-18.8c15.1-6.3,32.8-5,47.9,2.5
		c29,15.1,45.4,46.4,44.1,79c-1.3,35.1-21.4,66.5-49.2,86.6c41.6-27.6,63.1-85.3,39.1-131.7c-16.4-31.4-58-51.4-90.8-32.6
		c34-15.1,74.4,5,89.5,38.9c21.4,50.2-7.6,107.9-54.2,130.5c26.5-12.5,46.7-35.1,56.7-62.7c10.1-28.9,5-61.5-13.9-86.6
		C175.3,66.5,140,57.7,112.2,74c15.1-16.3,41.6-15.1,60.5-7.5c21.4,10,36.6,28.9,44.1,51.4c11.4,40.1-2.5,84.1-34,110.4
		c45.4-37.6,53-109.2,8.8-150.6c-25.2-22.6-66.8-25.1-92.1,0c17.7-27.6,58-28.9,84.5-12.5c50.4,30.1,55.5,99.1,24,144.3
		c24-33.9,26.5-79,5-115.4c-18.9-30.1-53-47.7-87-37.6c-11.4,3.8-21.4,10-27.7,20.1c18.9-20.1,49.2-25.1,74.4-13.8
		c16.4,7.5,30.3,21.3,40.4,37.6c21.4,38.9,11.4,87.8-17.7,120.4c39.1-42.7,41.6-116.7-11.4-151.8c-25.2-16.3-55.5-13.8-79.4,0
		c30.3-26.3,78.2-15.1,102.2,15.1c29,36.4,27.7,87.8,2.5,124.2c25.2-36.4,26.5-87.8-2.5-124.2c-22.7-27.6-68.1-43.9-97.1-16.3
		c27.7-17.6,64.3-10,87,12.5c39.1,40.1,32.8,107.9-7.6,144.3c22.7-20.1,34-50.2,34-80.3c0-27.6-12.6-52.7-34-70.3
		c-18.9-13.8-44.1-20.1-66.8-10c37.8-13.8,78.2,11.3,92.1,46.4c15.1,40.1,2.5,85.3-27.2,114.2C185.7,226.1,184.2,227.6,182.6,229z"
		/>
	<linearGradient id="SVGID_2_" gradientUnits="userSpaceOnUse" x1="51.7075" y1="160.4727" x2="206.2561" y2="160.4727">
		<stop  offset="0" style="stop-color:#00A0E3"/>
		<stop  offset="1" style="stop-color:#0071B4"/>
	</linearGradient>
	<path fill="url(#SVGID_2_)" d="M80.3,237.6c45.8,7,95-18.1,112.6-59.5c12.6-31.4,5-72.8-26.5-90.3c29,17.6,36.6,55.2,26.5,85.3
		c-17.7,46.4-71.9,72.8-119.8,61.5c59.3,15.1,129.9-31.4,123.6-95.4c-2.5-18.8-11.3-38.9-30.3-47.7c37.8,30.1,31.5,89.1-6.3,117.9
		c-31.5,23.8-73.1,28.9-108.5,12.5c32.8,15.1,73.1,12.5,104.7-10c20.2-15.1,32.8-33.9,35.3-57.7c2.5-23.8-6.3-50.2-27.7-62.7
		c24,10,32.8,38.9,31.5,62.7c-2.5,23.8-16.4,45.2-35.3,60.2c-27.7,21.3-61.8,23.8-93.3,17.6c36.6,7.5,75.7,1.3,103.4-26.3
		c18.9-20.1,30.3-46.4,24-74c-5-20.1-17.7-40.1-39.1-43.9c26.5,10,40.4,40.2,36.6,67.8c-3.8,22.6-15.1,41.4-32.8,55.2
		c-31.5,22.6-70.6,26.3-105.9,12.5c50.4,21.3,118.5,0,136.2-55.2c10.1-33.9-5-71.5-39.1-84.1c35.3,3.8,53,42.7,47.9,75.3
		c-8.8,53.9-66.8,86.6-117.3,77.8c56.7,11.3,119.8-33.9,118.5-92.8c-1.3-32.6-25.2-64-59.3-66.5c36.6-6.3,64.3,32.6,65.6,65.2
		c1.3,52.7-44.1,94.1-94.6,101.6c47.9-7.5,90.8-43.9,94.6-94.1c2.5-36.4-25.2-77.8-65.6-74c40.4,1.3,66.8,41.4,61.8,80.3
		c-7.6,51.4-56.7,86.6-107.2,85.3c45.4,0,92.1-28.9,104.7-74c11.3-38.9-10.1-81.6-49.2-91.6c37.8,3.8,60.5,43.9,55.5,79
		c-6.3,47.7-46.7,84.1-93.3,89.1c27.7-5,54.2-16.3,71.9-38.9c15.1-20.1,24-43.9,21.4-69c-3.8-27.6-22.7-54-51.7-59
		c31.5,11.3,50.4,43.9,46.7,77.8c-7.6,52.7-60.5,90.3-112.2,84.1c41.6,3.8,84.5-17.6,103.4-55.2c17.7-33.9,10.1-80.3-26.5-99.1
		c37.8,22.6,44.1,74,18.9,109.2c-21.4,28.9-55.5,45.2-91.1,44C88.8,238.4,84.6,238.1,80.3,237.6z"/>
	<linearGradient id="SVGID_3_" gradientUnits="userSpaceOnUse" x1="-3.520870e-006" y1="165.7115" x2="183.8594" y2="165.7115">
		<stop  offset="0" style="stop-color:#005791"/>
		<stop  offset="1" style="stop-color:#0071B4"/>
	</linearGradient>
	<path fill="url(#SVGID_3_)" d="M7.5,167.1c29,47.4,98.4,67.5,143.8,29.9c17.7-15.1,29-38.9,24-61.5c3.8,28.9-13.9,56.5-40.4,70.3
		C87,229.6,29,204.5,5,159.3c22.7,41.4,74.4,66.5,121.1,50.2c29-11.3,53-40.1,46.7-72.8c0,36.4-27.7,66.5-63.1,71.5
		c-50.4,7.5-95.8-27.6-109.7-74c12.6,47.7,60.5,80.3,109.7,74c35.3-5,64.3-36.4,61.8-72.8c5,22.6-5,46.4-24,60.2
		c-50.4,37.6-119.8,8.8-145-42.7c25.2,50.2,93.3,81.6,143.8,43.9c21.4-16.3,34.1-45.2,22.7-70.3c7.6,28.9-7.6,59-32.8,72.8
		C82,228.3,15.1,190.7,0,135.5c15.1,54,78.2,89.1,131.2,66.5c30.3-13.8,49.2-48.9,36.6-81.5c12.6,16.3,8.8,37.6,1.3,55.2
		c-10.1,18.8-29,31.4-50.4,37.6c-42.9,11.3-87-11.3-111-46.4c29,45.2,95.8,67.8,142.5,31.4c27.7-21.3,37.8-61.5,15.1-90.3
		c31.5,25.1,17.7,72.8-11.3,95.4c-40.4,31.4-95.8,22.6-131.2-8.8c32.8,28.9,82,37.6,122.3,15.1c35.3-20.1,54.2-71.5,21.4-101.6
		c24,27.6,13.9,69-12.6,91.6c-42.9,35.1-107.2,21.3-140-18.8c31.5,38.9,90.8,52.7,134.9,22.6c29-20.1,40.4-59,24-89.1
		c17.7,21.3,12.6,52.7-3.8,74c-12.6,16.3-30.3,27.6-50.4,32.6c-34.1,7.5-69.4-2.5-94.6-25.1c29,26.3,70.6,35.1,107.2,21.3
		c21.4-8.8,39.1-25.1,47.9-46.4c5-16.3,7.6-37.6-5-52.7c13.9,28.9,1.3,62.7-24,82.8c-45.4,32.6-108.5,17.6-138.7-26.3
		C39.1,214.5,95.8,230.9,140,207c26.5-15.1,44.1-45.2,36.6-75.3c7.6,42.7-27.7,80.3-69.4,84.1c-35.3,2.5-70.6-11.3-92-38.8
		C12.5,173.9,10,170.6,7.5,167.1z"/>
	<linearGradient id="SVGID_4_" gradientUnits="userSpaceOnUse" x1="2.3132" y1="117.9792" x2="160.1597" y2="117.9792">
		<stop  offset="0" style="stop-color:#005791"/>
		<stop  offset="1" style="stop-color:#003E65"/>
	</linearGradient>
	<path fill="url(#SVGID_4_)" d="M14.3,63.4C-3.8,117.9,26.5,185.7,87,193.2c21.4,2.5,44.1-3.8,56.7-21.3
		C111,207,54.2,194.5,29,155.6C8.8,125.5,6.3,89.1,18.9,56.5C0,100.4,15.1,156.8,58,181.9c26.5,15.1,61.8,13.8,82-10
		c-25.2,22.6-65.6,18.8-90.8-2.5C10.1,135.5,7.6,75.3,35.3,35.1c-20.2,31.4-25.2,71.5-8.8,106.6c20.2,40.1,78.2,62.7,113.5,27.6
		c-15.1,22.6-47.9,25.1-70.6,16.3c-21.4-8.8-39.1-25.1-47.9-46.4c-11.4-28.9-11.4-61.5,1.3-89.1C3.8,91.6,11.4,143,47.9,173.1
		c29,23.8,78.2,23.8,98.4-10c-20.2,25.1-55.5,30.1-83.2,16.3c-51.7-27.6-59.3-96.6-29-143C6.3,80.3,8.8,144.3,56.8,175.6
		c31.5,20.1,74.4,13.8,93.3-17.6c-8.8,31.4-47.9,40.1-75.7,32.6c-53-16.3-78.2-77.8-59.3-128c-17.7,46.4,3.8,105.4,51.7,125.5
		c35.3,15.1,82-1.3,92.1-40.1c1.3,17.6-10.1,31.4-24,41.4c-20.2,12.5-41.6,13.8-63.1,7.5C26.5,183.2,1.3,138,2.5,92.8
		c-3.8,56.5,44.1,115.4,104.7,106.6c25.2-3.8,53-23.8,53-51.4c-6.3,35.1-44.1,55.2-78.2,47.7C27.7,184.4-1.3,129.2,7.6,77.8
		c-6.3,37.6,6.3,77.8,39.1,102.9c36.6,28.9,94.6,18.8,112.2-23.8c-7.6,36.4-51.7,50.2-84.5,41.4C29,185.7,0,140.5,2.5,95.4
		C0,140.5,30.3,185.7,75.7,198.2c31.5,8.8,70.6-5,80.7-36.4c-17.7,31.4-58,41.4-90.8,27.6C20.2,169.4,0,117.9,10.1,71.5
		c-8.8,37.6,2.5,79,34.1,105.4c30.3,25.1,78.2,26.3,103.4-6.3c-15.1,16.3-37.8,25.1-60.5,22.6c-55.5-6.3-87-67.7-75.6-117.8
		C12.2,71.5,13.2,67.5,14.3,63.4z"/>
	<linearGradient id="SVGID_5_" gradientUnits="userSpaceOnUse" x1="24.4771" y1="89.0667" x2="139.9847" y2="89.0667">
		<stop  offset="0" style="stop-color:#003E65"/>
		<stop  offset="1" style="stop-color:#003050"/>
	</linearGradient>
	<path fill="url(#SVGID_5_)" d="M103.7,1.5c-41.9,14.8-73.4,55-72.2,98.9c1.3,32.6,25.2,69,61.8,70.3c-40.4-5-65.6-46.4-59.3-85.3
		c6.3-41.4,39.1-74,78.2-85.3C79.5,10,51.7,32.6,39.1,65.2c-15.1,40.1,3.8,99.1,51.7,101.6c-27.7-6.3-47.9-32.6-51.7-60.2
		C32.8,48.9,85.8,2.5,140,1.3c-42.9,2.5-83.2,28.9-97.1,69c-13.9,38.9,6.3,90.3,50.4,96.6c-20.2,0-37.8-13.8-47.9-30.1
		c-17.7-32.6-12.6-71.5,11.4-99.1C73.1,18.8,94.6,5,119.8,0c-34,7.5-63.1,30.1-76.9,61.5c-8.8,21.3-10.1,43.9-2.5,65.2
		c10.1,23.8,34,45.2,61.8,40.1c-49.2,0-74.4-55.2-59.3-97.9C58,30.1,95.8,3.8,137.5,1.3C97.1,3.8,59.3,28.9,44.1,66.5
		c-10.1,23.8-7.6,51.4,7.6,74c13.9,20.1,34,27.6,56.7,27.6c-37.8,12.5-71.9-25.1-75.7-60.2c-5-47.7,26.5-90.3,70.6-106.6
		C47.9,20.1,11.4,86.6,44.1,140.5c16.4,27.6,49.2,40.2,78.2,27.6c-30.3,22.6-70.6,1.3-87-28.9c-24-45.2-3.8-99.1,35.3-128
		c-40.4,28.9-59.3,85.3-34,130.5c16.4,27.6,56.7,48.9,85.8,27.6c-34,17.6-73.1-6.3-87-37.6C15.1,84.1,41.6,27.6,87,5
		C37.8,28.9,11.4,91.6,40.4,141.8c16.4,25.1,45.4,38.9,74.4,32.6c-21.4,8.8-46.7,1.3-63.1-13.8C6.3,119.2,21.4,43.9,69.4,12.5
		c-36.6,25.1-54.2,74-39.1,116.7c11.4,30.1,45.4,57.7,79.4,45.2c-25.2,2.5-49.2-7.5-64.3-27.6C7.6,95.4,41.6,25.1,94.6,3.8
		C49.2,21.3,21.4,71.5,32.8,119.2c7.6,30.1,32.8,54,64.3,54C53,169.4,24,124.2,32.8,81.6c7.6-33.9,29-60.2,59.5-75.1
		C95.9,4.7,99.7,3,103.7,1.5z"/>
	<linearGradient id="SVGID_6_" gradientUnits="userSpaceOnUse" x1="47.4217" y1="80.7228" x2="230.7805" y2="80.7228">
		<stop  offset="0" style="stop-color:#005791"/>
		<stop  offset="1" style="stop-color:#0071B4"/>
	</linearGradient>
	<path fill="url(#SVGID_6_)" d="M209.6,36.7C174,11.3,126.1,7.5,88.3,33.9C58,55.2,42.9,96.6,63.1,129.2
		c-20.2-37.6,2.5-85.3,40.4-101.6c37.8-16.3,80.7-8.8,112.2,15.1c-35.3-26.3-83.2-33.9-123.6-8.8c-29,18.8-47.9,61.5-26.5,91.6
		c-15.1-35.1,3.8-75.3,36.6-91.6c44.1-22.6,99.6-6.3,128.6,32.6c-24-31.4-64.3-47.7-104.7-41.4c-45.4,8.8-80.7,57.7-59.3,101.6
		c-18.9-27.6-6.3-64,16.4-84.1c40.4-35.1,99.6-27.6,137.5,6.3c-29-23.8-68.1-36.4-104.7-25.1c-27.7,8.8-51.7,31.4-58,61.5
		c-2.5,17.6,0,36.4,13.9,48.9c-21.4-31.4-11.4-71.5,18.9-94.1C136.2,7.5,198,23.8,229.5,64c-24-31.4-64.3-46.4-104.7-38.9
		c-26.5,6.3-47.9,22.6-59.3,46.4c-10.1,22.6-5,48.9,10.1,69c-16.4-10-22.7-30.1-21.4-47.7c2.5-40.1,36.6-69,75.7-75.3
		c29-3.8,55.5,3.8,79.4,18.8C172.8,12.5,124.8,7.5,87,35.1C69.4,47.7,58,65.2,54.2,86.6c-5,26.3,7.6,50.2,27.7,65.2
		c-39.1-16.3-44.1-69-18.9-101.6C90.8,12.5,140,2.5,181.6,15.1C134.9,0,75.7,17.6,54.2,65.2c-13.9,30.1-6.3,74,27.7,86.6
		C44.1,133,42.9,79,68.1,48.9c31.5-37.6,85.8-45.2,128.6-23.8C160.2,7.5,118.5,8.8,84.5,32.6C46.7,60.2,39.1,116.7,73.1,148
		c-24-16.3-30.3-47.7-22.7-74c16.4-52.7,79.4-75.3,129.9-59C132.4-1.3,73.1,20.1,53,67.8c-10.1,25.1-7.6,60.2,17.7,76.5
		c-22.7-22.6-24-57.7-7.6-85.3C92.1,10,157.6,5,203,30.1C157.6,5,95.8,8.8,64.3,56.5c-15.1,23.8-16.4,54,0,76.5
		c-24-35.1-5-82.8,30.3-102.9c32.8-18.8,71.9-17.6,104.2,0.2C202.4,32.3,206,34.4,209.6,36.7z"/>
	<linearGradient id="SVGID_7_" gradientUnits="userSpaceOnUse" x1="69.5251" y1="103.6624" x2="244.6508" y2="103.6624">
		<stop  offset="0" style="stop-color:#00A0E3"/>
		<stop  offset="1" style="stop-color:#0071B4"/>
	</linearGradient>
	<path fill="url(#SVGID_7_)" d="M243.4,141.7c-1.3-48.9-36.9-94.4-88.3-102.8c-30.5-5-64.7,7.6-75.7,41.4
		c13.9-30.1,47.9-45.2,80.7-38.9c51.7,10,83.2,59,82,109.2c1.3-50.2-31.5-100.4-83.2-109.2c-30.3-3.8-65.6,7.5-75.7,38.9
		c17.7-30.1,54.2-41.4,87-31.4c51.7,17.6,75.7,75.3,63.1,126.7c10.1-42.7-2.5-87.8-40.4-115.4c-36.6-25.1-89.5-18.8-109.7,21.3
		c10.1-30.1,44.1-42.7,74.4-38.9c54.2,8.8,87,62.7,82,114.2c7.6-59-41.6-123-105.9-114.2c-26.5,3.8-49.2,22.6-54.2,48.9
		c13.9-45.2,69.4-59,108.5-35.1c39.1,25.1,56.7,72.8,45.4,116.7c12.6-46.4-8.8-97.9-53-120.4c-39.1-20.1-95.8-1.3-102.1,45.2
		c-3.8-25.1,18.9-46.4,41.6-55.2c22.7-7.5,47.9-3.8,69.4,7.5C223.2,69,242.1,105.4,243.4,141.7c-1.3-30.1-13.9-58.9-36.6-79
		c-24-21.3-58-30.1-88.3-20.1c-27.7,10-47.9,36.4-45.4,66.5c-10.1-22.6,5-46.4,22.7-61.5c25.2-18.8,58-20.1,85.8-8.8
		c30.3,12.5,51.7,37.6,61.8,67.7C227,59,179.1,22.6,126.1,33.9C92.1,41.4,60.5,74,71.9,109.2c-5-36.4,24-66.5,59.3-72.8
		c55.5-8.8,105.9,36.4,113.5,89.1c-5-33.9-27.7-64-58-80.3c-25.2-12.5-55.5-13.8-80.7,0c-20.2,11.3-34.1,32.6-35.3,55.2
		c-3.8-28.9,20.2-53.9,46.7-64c53-17.6,111,17.6,126.1,69C227,51.4,162.7,15.1,108.5,40.1C87,50.2,71.9,71.5,70.6,95.4
		c6.3-30.1,31.5-52.7,61.8-57.7c58-7.5,107.2,40.1,112.2,95.4c-5-46.4-40.4-89.1-88.3-95.4C123.6,33.9,87,48.9,76.9,82.8
		c7.6-22.6,27.7-36.4,50.4-42.7c27.7-6.3,55.5,1.3,76.9,20.1c21.4,17.6,34,42.7,37.8,68.9C242.7,133.2,243.1,137.4,243.4,141.7z"/>
</g>
</svg>
